<?xml version="1.0" encoding="UTF-8"?>
<svg version="1.1" xmlns="http://www.w3.org/2000/svg" width="512" height="512">
<path d="M0 0 C1.72573242 -0.02416992 1.72573242 -0.02416992 3.48632812 -0.04882812 C10.12566582 -0.0526329 15.18876508 0.52772327 21.1875 3.3125 C22.80603394 3.93168314 24.42591373 4.54735574 26.046875 5.16015625 C31.39510461 7.31515419 36.40016901 9.95471273 41.4375 12.75 C42.37698486 13.26643066 43.31646973 13.78286133 44.28442383 14.31494141 C52.11653969 18.6504259 59.83858922 23.16574669 67.51464844 27.77124023 C73.65472131 31.44977874 79.88808536 34.91507622 86.1875 38.3125 C97.13740953 44.28741967 107.95641067 50.47079442 118.71923828 56.77612305 C126.37582193 61.26152328 134.05801322 65.70063244 141.75 70.125 C150.95327931 75.42840152 160.14915498 80.73162767 169.1875 86.3125 C170.22519531 86.93898438 171.26289063 87.56546875 172.33203125 88.2109375 C188.37972532 98.30512247 198.85145057 111.1537623 203.4609375 129.671875 C209.63426171 160.60487589 207.53725319 194.24239172 207.50317383 225.59960938 C207.49852317 230.24879582 207.50555835 234.89772183 207.52368164 239.546875 C207.69568854 284.16352399 207.69568854 284.16352399 205.85546875 304.859375 C205.76792548 305.86933407 205.76792548 305.86933407 205.67861366 306.89969635 C203.86258161 327.06718226 198.33139747 342.66291549 182.8125 356.25 C170.59913282 366.27918186 156.1100989 373.57297759 142.41796875 381.33984375 C137.45046944 384.15809433 132.50285913 387.00948942 127.5625 389.875 C126.78293945 390.32705811 126.00337891 390.77911621 125.20019531 391.24487305 C123.6361485 392.15203968 122.07218319 393.05934685 120.50830078 393.96679688 C118.21359812 395.29736716 115.91759755 396.62566616 113.62109375 397.953125 C105.86215149 402.43881497 98.11165399 406.93831973 90.37402344 411.46069336 C80.82714623 417.04036346 71.26148541 422.58268863 61.64477539 428.04125977 C57.60060322 430.34143349 53.57623521 432.66465757 49.59375 435.0703125 C41.02388417 440.24340551 32.5941258 444.78501533 23.1875 448.3125 C22.22481201 448.71202881 22.22481201 448.71202881 21.24267578 449.11962891 C14.56362947 451.68310324 8.16254094 451.8516829 1.0625 451.8125 C-0.13656982 451.80677979 -1.33563965 451.80105957 -2.57104492 451.79516602 C-11.90972143 451.60731726 -19.30064513 450.33796205 -27.8125 446.3125 C-29.46572266 445.56806641 -29.46572266 445.56806641 -31.15234375 444.80859375 C-40.52812409 440.35160768 -49.43501577 434.99312857 -58.37890625 429.73876953 C-62.24223821 427.47456554 -66.12204005 425.23902112 -70 423 C-82.32543447 415.86874581 -94.6179952 408.68102578 -106.91503906 401.50097656 C-109.98486574 399.70870958 -113.05489767 397.91679474 -116.125 396.125 C-117.12821289 395.53928223 -118.13142578 394.95356445 -119.16503906 394.35009766 C-124.4263762 391.28026674 -129.6950334 388.22395384 -134.97485352 385.18603516 C-138.92834317 382.90786803 -142.87177894 380.6126697 -146.8125 378.3125 C-147.81522949 377.72823242 -148.81795898 377.14396484 -149.85107422 376.54199219 C-194.26909712 350.57288427 -194.26909712 350.57288427 -202.94523621 324.01107788 C-204.67412114 316.63798608 -204.36715887 309.14281266 -204.33007812 301.60742188 C-204.33550794 299.74336706 -204.34263539 297.87931655 -204.35131836 296.01527405 C-204.36945249 290.98423926 -204.36252534 285.95353497 -204.34980202 280.92249489 C-204.33962275 275.63903588 -204.34908131 270.35560377 -204.35534668 265.07214355 C-204.36260879 256.20217853 -204.35307315 247.33234706 -204.33398438 238.46240234 C-204.31221846 228.23079522 -204.31927084 217.99950702 -204.34129 207.76790762 C-204.35948499 198.95818158 -204.36198231 190.14855113 -204.35153532 181.33881235 C-204.3453229 176.08812139 -204.34440249 170.83757996 -204.35768127 165.5868988 C-204.36929898 160.64876431 -204.36110656 155.71103805 -204.33810425 150.77294731 C-204.33284864 148.9686952 -204.33427647 147.16440829 -204.34315491 145.36017036 C-204.42406493 127.23685057 -200.13386201 113.32310154 -187.47265625 99.81640625 C-179.5877407 92.39462817 -170.3863579 86.88422878 -160.92675781 81.71337891 C-156.00299867 79.01873117 -151.23784607 76.13349568 -146.5 73.125 C-141.42246994 69.91094464 -136.31918864 66.87117886 -131.01171875 64.046875 C-126.61386778 61.66269205 -122.27793669 59.17433158 -117.9375 56.6875 C-117.03660645 56.1716333 -116.13571289 55.6557666 -115.20751953 55.12426758 C-113.34502737 54.05729333 -111.48272527 52.98998725 -109.62060547 51.92236328 C-97.80395995 45.14797965 -85.98023543 38.38775447 -74.1015625 31.72265625 C-69.83515601 29.32778553 -65.57589885 26.92034282 -61.31738281 24.51147461 C-59.32002641 23.38216008 -57.32198287 22.25405997 -55.32324219 21.12719727 C-50.94899555 18.66005533 -46.58050434 16.18612893 -42.2421875 13.65625 C-34.28121291 9.03800507 -26.52059021 5.37077146 -17.8125 2.3125 C-17.05195313 1.96864258 -16.29140625 1.62478516 -15.5078125 1.27050781 C-10.51357109 -0.5046193 -5.24716922 -0.01455122 0 0 Z M-27.25 84.875 C-29.35888421 86.12452662 -31.46826853 87.37320952 -33.578125 88.62109375 C-34.62419922 89.24226074 -35.67027344 89.86342773 -36.74804688 90.50341797 C-41.30594631 93.19414732 -45.89969451 95.82012982 -50.5 98.4375 C-51.77762207 99.1653772 -51.77762207 99.1653772 -53.08105469 99.90795898 C-54.79476469 100.88422779 -56.50863135 101.86022165 -58.22265625 102.8359375 C-60.86948044 104.34498658 -63.51326975 105.85922967 -66.15625 107.375 C-73.68727379 111.69217364 -81.21957277 116.00270699 -88.8190918 120.19848633 C-91.76143951 121.82351785 -94.69721053 123.46019287 -97.63183594 125.09912109 C-99.10119892 125.91671335 -100.5732746 126.72944702 -102.04785156 127.53759766 C-114.33861176 134.29349918 -127.70237644 142.02030137 -133.8125 155.3125 C-134.28429687 156.3025 -134.28429687 156.3025 -134.765625 157.3125 C-138.03194072 165.38920796 -137.30967091 174.23832111 -136.28515625 182.73046875 C-135.81490212 187.19366164 -135.77950087 191.60426173 -135.85546875 196.0859375 C-135.86569061 196.78149246 -135.87591248 197.47704742 -135.88644409 198.19367981 C-135.9315812 201.08202241 -135.98037742 203.96978204 -136.05932617 206.85742188 C-136.30520672 216.34905537 -135.59428344 224.42631895 -131.8125 233.3125 C-128.08017863 232.09569503 -124.67922037 230.8522931 -121.25 228.9375 C-120.29351562 228.40511719 -119.33703125 227.87273437 -118.3515625 227.32421875 C-115.65257574 225.79605782 -112.96270341 224.25222338 -110.2734375 222.70703125 C-108.55738461 221.72119236 -106.84123454 220.73552263 -105.125 219.75 C-104.23119629 219.23663086 -103.33739258 218.72326172 -102.41650391 218.19433594 C-94.53308409 213.68519079 -86.5625308 209.34850614 -78.56811523 205.04003906 C-72.42196314 201.72738923 -66.2905757 198.39141453 -60.1875 195 C-59.53885986 194.64019043 -58.89021973 194.28038086 -58.22192383 193.90966797 C-53.64052403 191.35749362 -49.08599222 188.75909473 -44.53369141 186.15551758 C-43.88608353 185.78528725 -43.23847565 185.41505692 -42.57124329 185.03360748 C-40.98492185 184.12670051 -39.39870078 183.21961799 -37.8125 182.3125 C-37.81526538 183.18218194 -37.81803076 184.05186388 -37.82087994 184.94789982 C-37.88714652 206.1137644 -37.93678389 227.27961109 -37.96793652 248.44555759 C-37.9834023 258.68127227 -38.00448634 268.91691768 -38.03881836 279.15258789 C-38.0687295 288.07448512 -38.0880771 296.99633218 -38.09476548 305.91827816 C-38.09867482 310.64194286 -38.10785639 315.36546404 -38.12969017 320.08908272 C-38.15008237 324.53694212 -38.15632826 328.98459913 -38.15182304 333.43250084 C-38.15264702 335.0630923 -38.1585964 336.69369066 -38.17011642 338.32424164 C-38.1851037 340.55536127 -38.18143142 342.78572277 -38.17326355 345.01686096 C-38.17602893 346.26404687 -38.17879431 347.51123278 -38.18164349 348.7962122 C-37.74358236 352.96897709 -36.72540108 355.58993154 -34.8125 359.3125 C-29.42040801 363.6619284 -22.33749123 362.74375739 -15.75 362.7109375 C-13.85302368 362.71524277 -13.85302368 362.71524277 -11.91772461 362.71963501 C-9.24789397 362.72167358 -6.57889155 362.71767601 -3.90917969 362.70361328 C-0.49960765 362.68652167 2.90925579 362.69637086 6.31880188 362.71433067 C9.58755944 362.72782223 12.85623317 362.7183561 16.125 362.7109375 C17.95333374 362.72004654 17.95333374 362.72004654 19.81860352 362.7293396 C28.03317936 362.84790649 28.03317936 362.84790649 35.1875 359.3125 C37.75241229 354.32483994 38.56079435 350.66370125 38.54826355 344.97889709 C38.55082682 344.27462867 38.5533901 343.57036024 38.55603105 342.84475034 C38.56094204 340.50311373 38.54452133 338.16213307 38.52807617 335.82055664 C38.52722932 334.13481664 38.52770619 332.44907554 38.52940369 330.76333618 C38.53026278 326.1997491 38.51265096 321.63639961 38.49168181 317.07286763 C38.47290067 312.29895187 38.47116344 307.52503038 38.46760559 302.75108337 C38.45828935 293.71665083 38.43368125 284.68232747 38.40355712 275.64794296 C38.37000002 265.36020459 38.3535238 255.07246094 38.33847082 244.78468144 C38.30713134 223.62722674 38.25437901 202.46987025 38.1875 181.3125 C38.86314499 181.70681717 39.53878998 182.10113434 40.23490906 182.50740051 C43.34792553 184.32409281 46.46107139 186.14056327 49.57421875 187.95703125 C50.63668823 188.5771106 51.69915771 189.19718994 52.79382324 189.83605957 C59.18987041 193.56780198 65.59076325 197.29095642 72 201 C72.80121277 201.46372513 73.60242554 201.92745026 74.42791748 202.40522766 C78.32539521 204.66054588 82.22583486 206.91062633 86.12890625 209.15625 C93.20180692 213.23074226 100.25508843 217.31477721 107.1875 221.625 C118.3724977 229.31564066 118.3724977 229.31564066 131.1875 232.3125 C134.40379947 230.6197108 135.02476711 229.80069868 136.1875 226.3125 C136.29215278 224.13181313 136.3361585 221.94805354 136.34863281 219.76489258 C136.35359772 219.10430847 136.35856262 218.44372437 136.36367798 217.76312256 C136.37828061 215.57774815 136.38509995 213.39244644 136.390625 211.20703125 C136.39637994 209.68348693 136.40213763 208.15994262 136.40789795 206.63639832 C136.41840387 203.43948022 136.42424857 200.24258723 136.42773438 197.0456543 C136.43320495 192.96481021 136.45720358 188.88430216 136.48570633 184.80356312 C136.5044083 181.65411946 136.50954241 178.50475533 136.51107025 175.35526085 C136.5140825 173.85187642 136.52206243 172.34849291 136.53525543 170.84516335 C136.7230614 158.40686251 136.7230614 158.40686251 131.74780273 147.23071289 C126.77397656 142.43543831 121.26231456 139.10919181 115.25 135.75 C113.09226827 134.51854389 110.93472125 133.28676409 108.77734375 132.0546875 C107.68019043 131.43303711 106.58303711 130.81138672 105.45263672 130.17089844 C100.37973717 127.28358639 95.34805808 124.32677786 90.3125 121.375 C81.80855272 116.40806176 73.28375808 111.47801397 64.75 106.5625 C57.67158892 102.48501225 50.59880276 98.39979194 43.5625 94.25 C42.60102051 93.68394043 42.60102051 93.68394043 41.62011719 93.10644531 C38.49015233 91.26285149 35.36214497 89.41608433 32.23779297 87.56298828 C28.99491851 85.64093782 25.74768437 83.7264096 22.5 81.8125 C20.95675049 80.89392212 20.95675049 80.89392212 19.38232422 79.95678711 C18.40666504 79.38323486 17.43100586 78.80968262 16.42578125 78.21875 C15.55993408 77.70634766 14.69408691 77.19394531 13.80200195 76.66601562 C-1.35385486 68.81989832 -13.91555544 76.85134476 -27.25 84.875 Z " fill="#24C385" transform="translate(253.8125,29.6875)"/>
</svg>
